<?xml version="1.0" encoding="iso-8859-1"?>
<!-- Generator: Adobe Illustrator 19.0.0, SVG Export Plug-In . SVG Version: 6.00 Build 0)  -->export
<svg version="1.1" id="Capa_1" xmlns="http://www.w3.org/2000/svg" xmlns:xlink="http://www.w3.org/1999/xlink" x="0px" y="0px"
	 viewBox="0 0 512 512" style="enable-background:new 0 0 512 512;" xml:space="preserve">
<path style="fill:#804ABF;" d="M481.088,146.777h-30.912l30.912,157.137c0,8.532,6.914,14.941,15.456,14.941
	c8.532,0,15.456-6.409,15.456-14.941V177.689C512,160.687,498.089,146.777,481.088,146.777z"/>
<path style="fill:#AB62FF;" d="M450.175,146.777h-37.814v157.137h30.91v166.05c0,10.438,8.46,18.908,18.908,18.908
	c10.438,0,18.908-8.47,18.908-18.908V177.689C481.088,160.687,467.177,146.777,450.175,146.777z"/>
<path style="fill:#804ABF;" d="M427.818,23.128v92.737c25.609,0,46.368-20.76,46.368-46.368S453.426,23.128,427.818,23.128z"/>
<path style="fill:#AB62FF;" d="M443.274,69.496c0-25.609-6.92-46.368-15.456-46.368c-25.609,0-46.368,20.76-46.368,46.368
	s20.76,46.368,46.368,46.368C436.354,115.864,443.274,95.105,443.274,69.496z"/>
<path style="fill:#3DB2FF;" d="M412.361,146.777h-30.912l30.912,157.137c0,8.532,6.914,14.941,15.456,14.941
	c8.532,0,15.456-6.409,15.456-14.941V177.689C443.274,160.687,429.363,146.777,412.361,146.777z"/>
<path style="fill:#7ACBFF;" d="M381.449,146.777h-37.814v157.137h30.91v166.05c0,10.438,8.46,18.908,18.908,18.908
	c10.438,0,18.908-8.47,18.908-18.908V177.689C412.361,160.687,398.451,146.777,381.449,146.777z"/>
<path style="fill:#3DB2FF;" d="M359.091,23.128v92.737c25.609,0,46.368-20.76,46.368-46.368S384.7,23.128,359.091,23.128z"/>
<path style="fill:#7ACBFF;" d="M374.548,69.496c0-25.609-6.92-46.368-15.456-46.368c-25.609,0-46.368,20.76-46.368,46.368
	s20.76,46.368,46.368,46.368C367.627,115.864,374.548,95.105,374.548,69.496z"/>
<path style="fill:#689E4E;" d="M343.635,146.777h-30.912l30.912,157.137c0,8.532,6.914,14.941,15.456,14.941
	c8.532,0,15.456-6.409,15.456-14.941V177.689C374.548,160.687,360.637,146.777,343.635,146.777z"/>
<path style="fill:#85C250;" d="M312.723,146.777h-37.814v157.137h30.91v166.05c0,10.438,8.46,18.908,18.908,18.908
	c10.438,0,18.908-8.47,18.908-18.908V177.689C343.635,160.687,329.725,146.777,312.723,146.777z"/>
<path style="fill:#689E4E;" d="M290.365,23.128v92.737c25.609,0,46.368-20.76,46.368-46.368S315.974,23.128,290.365,23.128z"/>
<path style="fill:#85C250;" d="M305.821,69.496c0-25.609-6.92-46.368-15.456-46.368c-25.609,0-46.368,20.76-46.368,46.368
	s20.76,46.368,46.368,46.368C298.901,115.864,305.821,95.105,305.821,69.496z"/>
<path style="fill:#FFCE47;" d="M274.909,146.777h-30.912l30.912,157.137c0,8.532,6.914,14.941,15.456,14.941
	c8.532,0,15.456-6.409,15.456-14.941V177.689C305.821,160.687,291.911,146.777,274.909,146.777z"/>
<path style="fill:#FFE290;" d="M243.997,146.777h-37.814v157.137h30.91v166.05c0,10.438,8.46,18.908,18.908,18.908
	c10.438,0,18.908-8.47,18.908-18.908V177.689C274.909,160.687,260.999,146.777,243.997,146.777z"/>
<path style="fill:#FFCE47;" d="M221.639,23.128v92.737c25.609,0,46.368-20.76,46.368-46.368S247.248,23.128,221.639,23.128z"/>
<path style="fill:#FFE290;" d="M237.095,69.496c0-25.609-6.92-46.368-15.456-46.368c-25.609,0-46.368,20.76-46.368,46.368
	s20.76,46.368,46.368,46.368C230.175,115.864,237.095,95.105,237.095,69.496z"/>
<path style="fill:#FF6E54;" d="M206.183,146.777h-30.912l30.912,157.137c0,8.532,6.914,14.941,15.456,14.941
	c8.532,0,15.456-6.409,15.456-14.941V177.689C237.095,160.687,223.185,146.777,206.183,146.777z"/>
<path style="fill:#FF9356;" d="M175.271,146.777h-37.814v157.137h30.91v166.05c0,10.438,8.46,18.908,18.908,18.908
	c10.438,0,18.908-8.47,18.908-18.908V177.689C206.183,160.687,192.272,146.777,175.271,146.777z"/>
<path style="fill:#FF6E54;" d="M152.913,23.128v92.737c25.609,0,46.368-20.76,46.368-46.368S178.521,23.128,152.913,23.128z"/>
<path style="fill:#FF9356;" d="M168.369,69.496c0-25.609-6.92-46.368-15.456-46.368c-25.609,0-46.368,20.76-46.368,46.368
	s20.76,46.368,46.368,46.368C161.449,115.864,168.369,95.105,168.369,69.496z"/>
<path style="fill:#D63D76;" d="M137.457,146.777h-30.912l30.912,157.137c0,8.532,6.914,14.941,15.456,14.941
	c8.532,0,15.456-6.409,15.456-14.941V177.689C168.369,160.687,154.458,146.777,137.457,146.777z"/>
<path style="fill:#FF71A1;" d="M30.912,146.777h30.912L30.912,303.399c0,8.532-6.924,15.456-15.456,15.456S0,311.931,0,303.399
	v-125.71C0,160.687,13.911,146.777,30.912,146.777z"/>
<path style="fill:#FF4181;" d="M106.544,146.777h-44.72c-17.002,0-30.912,13.911-30.912,30.912v292.276
	c0,10.438,8.47,18.908,18.908,18.908c10.448,0,18.908-8.47,18.908-18.908v-166.05h30.912v166.05c0,10.438,8.46,18.908,18.908,18.908
	c10.438,0,18.908-8.47,18.908-18.908V177.689C137.457,160.687,123.546,146.777,106.544,146.777z"/>
<path style="fill:#D63D76;" d="M84.186,23.128v92.737c25.609,0,46.368-20.76,46.368-46.368S109.795,23.128,84.186,23.128z"/>
<path style="fill:#FF4181;" d="M99.643,69.496c0-25.609-6.92-46.368-15.456-46.368c-25.609,0-46.368,20.76-46.368,46.368
	s20.76,46.368,46.368,46.368C92.722,115.864,99.643,95.105,99.643,69.496z"/>
<g>
</g>
<g>
</g>
<g>
</g>
<g>
</g>
<g>
</g>
<g>
</g>
<g>
</g>
<g>
</g>
<g>
</g>
<g>
</g>
<g>
</g>
<g>
</g>
<g>
</g>
<g>
</g>
<g>
</g>
</svg>
